<svg xmlns="http://www.w3.org/2000/svg" width="300" height="200" viewBox="0 0 300 200"><rect width="100%" height="100%" fill="#DDDDDD"/><path fill="#999999" d="M75.71 102.94q.31 0 .55.23l1.48 1.61q-1.23 1.53-3.03 2.34-1.8.81-4.32.81-2.25 0-4.05-.77-1.8-.77-3.07-2.14-1.28-1.37-1.95-3.27-.68-1.91-.68-4.16 0-2.28.72-4.18.73-1.9 2.06-3.27 1.32-1.37 3.15-2.14 1.84-.76 4.06-.76 2.21 0 3.93.73 1.71.73 2.92 1.9l-1.26 1.75q-.11.17-.29.3-.17.12-.48.12-.21 0-.44-.12-.22-.11-.49-.29-.26-.17-.61-.38t-.81-.39q-.47-.17-1.08-.29-.6-.12-1.4-.12-1.36 0-2.49.48-1.12.48-1.94 1.4-.81.92-1.26 2.24-.44 1.32-.44 3.02 0 1.71.48 3.04t1.31 2.24q.82.91 1.94 1.39 1.12.48 2.41.48.77 0 1.39-.08.63-.09 1.15-.27.53-.18 1-.47.47-.28.93-.7.14-.13.29-.21.16-.07.32-.07Zm10.43-9.82q1.6 0 2.91.52t2.24 1.47q.93.95 1.43 2.32.51 1.38.51 3.07 0 1.71-.51 3.08-.5 1.37-1.43 2.34-.93.96-2.24 1.48t-2.91.52q-1.61 0-2.92-.52-1.32-.52-2.25-1.48-.93-.97-1.44-2.34-.51-1.37-.51-3.08 0-1.69.51-3.07.51-1.37 1.44-2.32.93-.95 2.25-1.47 1.31-.52 2.92-.52Zm0 12.14q1.8 0 2.66-1.2.86-1.21.86-3.53 0-2.33-.86-3.54-.86-1.22-2.66-1.22-1.82 0-2.69 1.22-.88 1.23-.88 3.54t.88 3.52q.87 1.21 2.69 1.21Zm18.65-11.91h3.46v14.36h-2.11q-.69 0-.87-.63l-.24-1.15q-.88.9-1.95 1.45-1.06.55-2.5.55-1.18 0-2.08-.4-.9-.39-1.52-1.12-.62-.73-.93-1.73-.32-1-.32-2.21v-9.12h3.46v9.12q0 1.32.61 2.04t1.83.72q.89 0 1.68-.4.78-.4 1.48-1.1V93.35Zm10.33 4.2v6.44q.59.71 1.29 1 .69.3 1.5.3.78 0 1.41-.3.63-.29 1.08-.89.44-.6.67-1.52.24-.92.24-2.16 0-1.26-.2-2.14-.2-.87-.58-1.42-.38-.55-.92-.8t-1.22-.25q-1.08 0-1.84.45-.75.46-1.43 1.29Zm-.46-3.57.28 1.33q.88-1 2-1.61 1.12-.62 2.64-.62 1.17 0 2.15.49.97.49 1.68 1.42.7.93 1.09 2.3.38 1.36.38 3.13 0 1.61-.43 2.98-.44 1.37-1.24 2.38-.81 1.01-1.95 1.57-1.14.57-2.55.57-1.21 0-2.06-.37-.85-.37-1.53-1.03v5.88h-3.45V93.35h2.11q.67 0 .88.63Zm19.27-.86q1.59 0 2.9.52 1.31.52 2.24 1.47.93.95 1.44 2.32.5 1.38.5 3.07 0 1.71-.5 3.08-.51 1.37-1.44 2.34-.93.96-2.24 1.48t-2.9.52q-1.61 0-2.93-.52t-2.25-1.48q-.93-.97-1.44-2.34-.51-1.37-.51-3.08 0-1.69.51-3.07.51-1.37 1.44-2.32.93-.95 2.25-1.47 1.32-.52 2.93-.52Zm0 12.14q1.79 0 2.65-1.2.86-1.21.86-3.53 0-2.33-.86-3.54-.86-1.22-2.65-1.22-1.82 0-2.7 1.22-.87 1.23-.87 3.54t.87 3.52q.88 1.21 2.7 1.21Zm12.72-11.28.24 1.13q.43-.43.92-.81.48-.37 1.02-.63.54-.25 1.15-.4.62-.15 1.35-.15 1.17 0 2.08.4.91.4 1.52 1.12.61.72.93 1.72.31 1 .31 2.21v9.14h-3.46v-9.14q0-1.32-.6-2.04t-1.83-.72q-.9 0-1.68.41-.79.4-1.49 1.1v10.39h-3.45V93.35h2.11q.67 0 .88.63Zm23.93-6.51v20.24h-3.78V87.47h3.78Zm7.43 20.24h-3.46V93.35h2.12q.67 0 .88.63l.22 1.06q.38-.42.8-.77.41-.35.88-.6.47-.25 1.01-.4.53-.15 1.18-.15 1.36 0 2.23.74.88.73 1.31 1.95.34-.71.84-1.23.5-.51 1.11-.83.6-.32 1.28-.47.68-.16 1.36-.16 1.19 0 2.12.37.92.36 1.55 1.06.63.7.96 1.71.33 1.01.33 2.31v9.14h-3.46v-9.14q0-1.37-.6-2.07-.6-.69-1.77-.69-.53 0-.98.18-.46.18-.8.53-.34.34-.54.86t-.2 1.19v9.14h-3.47v-9.14q0-1.44-.58-2.1-.58-.66-1.7-.66-.76 0-1.41.37-.65.37-1.21 1.02v10.51Zm27.58-3.71v-2.42q-1.5.07-2.52.26t-1.64.48q-.61.29-.88.69-.26.39-.26.85 0 .91.54 1.3.53.39 1.4.39 1.07 0 1.84-.38.78-.39 1.52-1.17Zm-7.31-7.55-.61-1.1q2.48-2.27 5.96-2.27 1.26 0 2.26.41.99.42 1.68 1.15.68.74 1.04 1.76t.36 2.24v9.07h-1.57q-.49 0-.76-.15-.26-.14-.42-.59l-.31-1.04q-.54.49-1.06.86t-1.08.63q-.56.25-1.19.38-.64.13-1.41.13-.91 0-1.68-.24-.77-.25-1.33-.74t-.87-1.21q-.31-.73-.31-1.7 0-.54.18-1.08.19-.54.6-1.03t1.07-.93q.66-.43 1.62-.75.96-.32 2.23-.53 1.27-.2 2.91-.24v-.84q0-1.44-.61-2.14-.62-.69-1.78-.69-.84 0-1.39.2-.56.19-.98.44-.42.24-.76.44-.34.19-.76.19-.37 0-.62-.18-.25-.19-.41-.45Zm19.18 3.73q.65 0 1.12-.18.48-.17.8-.48.31-.31.47-.74.16-.44.16-.95 0-1.07-.63-1.69-.64-.62-1.92-.62-1.27 0-1.91.62-.63.62-.63 1.69 0 .5.16.93.16.44.47.75.32.32.8.49.48.18 1.11.18Zm3.91 8.17q0-.42-.25-.68-.25-.27-.69-.42-.43-.14-1.01-.21-.58-.07-1.23-.11l-1.35-.06q-.69-.03-1.35-.11-.57.32-.93.75-.36.44-.36 1.01 0 .38.19.71.19.33.6.57.42.23 1.07.37.66.13 1.61.13.97 0 1.67-.15.7-.14 1.16-.4.45-.26.66-.62.21-.36.21-.78Zm-.69-14.51h4.13v1.28q0 .62-.74.76l-1.29.24q.3.74.3 1.62 0 1.07-.43 1.93-.43.86-1.18 1.46-.76.6-1.79.93-1.03.33-2.22.33-.42 0-.81-.04-.39-.04-.77-.11-.67.4-.67.91 0 .43.4.63.4.21 1.06.29.65.08 1.49.1.84.03 1.73.1.88.07 1.72.24.84.18 1.5.55.65.38 1.05 1.03t.4 1.68q0 .95-.47 1.84-.47.9-1.35 1.6-.89.7-2.19 1.13-1.29.42-2.95.42-1.62 0-2.82-.31-1.21-.32-2.01-.84-.79-.53-1.19-1.21-.39-.69-.39-1.43 0-1.01.61-1.69.61-.68 1.67-1.08-.57-.3-.91-.79-.33-.49-.33-1.28 0-.33.12-.67t.35-.68q.23-.33.58-.64.35-.3.82-.53-1.09-.59-1.71-1.57-.62-.98-.62-2.3 0-1.06.42-1.92.43-.86 1.19-1.47.77-.61 1.81-.93 1.04-.33 2.27-.33.93 0 1.74.19.81.19 1.48.56Zm9.05 5.04h6.52q0-.68-.19-1.27-.19-.6-.56-1.04-.38-.45-.96-.71-.58-.26-1.35-.26-1.5 0-2.36.85-.86.86-1.1 2.43Zm8.82 2.08h-8.89q.08 1.11.39 1.91.31.81.81 1.33.51.53 1.2.79t1.53.26q.84 0 1.45-.2t1.07-.43q.45-.24.79-.44.35-.19.67-.19.43 0 .64.32l1 1.26q-.58.67-1.29 1.12-.72.46-1.49.73-.78.28-1.58.39-.81.11-1.57.11-1.49 0-2.78-.5-1.29-.49-2.24-1.47-.95-.97-1.5-2.41-.55-1.43-.55-3.32 0-1.47.48-2.77.48-1.29 1.37-2.25.88-.96 2.17-1.52 1.28-.56 2.89-.56 1.35 0 2.5.44 1.15.43 1.98 1.26.82.84 1.29 2.05.47 1.21.47 2.76 0 .79-.17 1.06t-.64.27Z"/></svg>